# xmcd
#
# Track frame offsets:
#	150
#	11995
#	26515
#	39749
#	50688
#	62323
#	76392
#	86670
#	100117
#	112547
#	123367
#	136739
#
# Disc length: 1990 seconds
# Revision: 0
# Processed by: cddbd v1.5.2PL0 Copyright (c) Steve Scherf et al.
# Submitted via: dBpowerAMP V12.0
#
DISCID=8d07c40c
DTITLE=Marcel Martel - Chante Chante Chante ed2009
DYEAR=1960
DGENRE=Folklore
TTITLE0=Le tango des fauvettes
TTITLE1=Mon amour a grandi
TTITLE2=La mer argentée
TTITLE3=Cha cha Maria
TTITLE4=Ta photo en souvenir
TTITLE5=Allo ma prairie
TTITLE6=Un p'tit coup de coeur
TTITLE7=Un soir
TTITLE8=Tango du plus joli rêve
TTITLE9=Rêverie
TTITLE10=Les trois cloches
TTITLE11=Mésange d'amour
EXTD=
EXTT0=
EXTT1=
EXTT2=
EXTT3=
EXTT4=
EXTT5=
EXTT6=
EXTT7=
EXTT8=
EXTT9=
EXTT10=
EXTT11=
PLAYORDER=
